<svg width="299" height="116" viewBox="0 0 299 116" fill="none" xmlns="http://www.w3.org/2000/svg">
<ellipse cx="149.383" cy="104.62" rx="149.005" ry="11.0402" fill="#E1E1E1"/>
<path d="M179.953 103.581H144.877C135.074 103.581 133.487 95.9027 131.844 87.7711C131.419 85.6462 130.965 83.4362 130.342 81.2829C127.282 70.4598 119.264 70.1481 118.952 70.1481C118.697 70.1481 118.499 69.9498 118.527 69.6948C118.527 69.4398 118.726 69.2698 118.981 69.2698C119.066 69.2698 121.276 69.3265 123.911 70.8281C126.319 72.1881 129.549 75.078 131.22 81.0562C131.844 83.2379 132.297 85.4762 132.722 87.6011C134.394 95.7043 135.81 102.674 144.905 102.674H180.01C192.533 102.674 197.803 98.5376 201.684 85.6178C201.996 84.6262 202.279 83.6345 202.563 82.6429C206.161 70.3464 209.901 57.6533 225.597 57.6533C225.852 57.6533 226.05 57.8517 226.05 58.1066C226.05 58.3616 225.852 58.56 225.597 58.56C218.769 58.56 213.896 60.9683 210.241 66.1248C207.011 70.6864 205.169 76.9197 203.413 82.9262C203.129 83.9179 202.818 84.9378 202.534 85.9012C198.511 99.1043 192.816 103.581 179.953 103.581Z" fill="black"/>
<path d="M48.3472 35.9791L66.0835 72.3302H135.527L59.6803 24.646L48.3472 35.9791Z" fill="#FFFCC7"/>
<path d="M48.3472 35.9787C53.2487 37.3953 60.9269 31.6721 59.652 24.6172L48.3472 35.9787Z" fill="#FFF78D"/>
<path d="M22.7342 70.9132C22.4792 70.9132 22.2809 70.7149 22.2809 70.4599V41.2204C22.2809 40.6254 22.5642 40.0871 23.0175 39.7471L43.9272 20.1124C44.0972 19.9424 44.3805 19.9424 44.5505 20.1408C44.7205 20.3108 44.7205 20.5941 44.5222 20.7641L23.5842 40.3988C23.5559 40.4271 23.5559 40.4271 23.5275 40.4271C23.2725 40.5971 23.1309 40.8804 23.1309 41.1921V70.4316C23.1875 70.7149 22.9892 70.9132 22.7342 70.9132Z" fill="black"/>
<path d="M29.874 72.4152H15.5942C15.5942 69.1569 18.7959 66.4937 22.7341 66.4937C26.6724 66.4937 29.874 69.1569 29.874 72.4152Z" fill="#AED8F4"/>
<path d="M29.8741 72.8683H15.5943C15.3393 72.8683 15.141 72.6699 15.141 72.4149C15.141 68.9017 18.5409 66.04 22.7342 66.04C26.9275 66.04 30.3274 68.9017 30.3274 72.4149C30.3274 72.6699 30.1291 72.8683 29.8741 72.8683ZM16.076 71.9899H29.4207C29.1374 69.185 26.2475 66.9467 22.7625 66.9467C19.2209 66.9467 16.3593 69.1567 16.076 71.9899Z" fill="black"/>
<path d="M25.3692 41.2209C25.3692 42.6659 24.1792 43.8558 22.7342 43.8558C21.2892 43.8558 20.0992 42.6659 20.0992 41.2209C20.0992 39.7759 21.2892 38.5859 22.7342 38.5859C24.2075 38.5859 25.3692 39.7759 25.3692 41.2209Z" fill="#AED8F4"/>
<path d="M22.734 44.3084C21.0341 44.3084 19.6458 42.9201 19.6458 41.2201C19.6458 39.5201 21.0341 38.1318 22.734 38.1318C24.434 38.1318 25.8223 39.5201 25.8223 41.2201C25.8223 42.9201 24.434 44.3084 22.734 44.3084ZM22.734 39.0385C21.5157 39.0385 20.5524 40.0301 20.5524 41.2201C20.5524 42.4101 21.5441 43.4017 22.734 43.4017C23.9523 43.4017 24.9157 42.4101 24.9157 41.2201C24.9157 40.0301 23.9523 39.0385 22.734 39.0385Z" fill="black"/>
<path d="M46.9021 20.4528C46.9021 21.8978 45.7121 23.0878 44.2672 23.0878C42.8222 23.0878 41.6322 21.8978 41.6322 20.4528C41.6322 19.0079 42.8222 17.8179 44.2672 17.8179C45.7405 17.8179 46.9021 19.0079 46.9021 20.4528Z" fill="#AED8F4"/>
<path d="M44.2671 23.5408C42.5671 23.5408 41.1788 22.1525 41.1788 20.4525C41.1788 18.7526 42.5671 17.3643 44.2671 17.3643C45.9671 17.3643 47.3554 18.7526 47.3554 20.4525C47.3554 22.1525 45.9671 23.5408 44.2671 23.5408ZM44.2671 18.2709C43.0488 18.2709 42.0855 19.2626 42.0855 20.4525C42.0855 21.6425 43.0771 22.6342 44.2671 22.6342C45.4854 22.6342 46.4487 21.6425 46.4487 20.4525C46.4487 19.2626 45.4854 18.2709 44.2671 18.2709Z" fill="black"/>
<path d="M48.3471 35.9791C48.3471 35.5825 42.7938 25.0143 42.7938 25.0143L48.9137 19.1777L59.6802 24.646L48.3471 35.9791Z" fill="#AED8F4"/>
<path d="M48.3471 36.4321C48.2904 36.4321 48.2338 36.4321 48.1771 36.4037C48.0354 36.3471 47.9221 36.2054 47.8938 36.0638C47.6954 35.4121 44.4088 29.0939 42.3689 25.2406C42.2839 25.0706 42.3122 24.844 42.4539 24.7023L48.5737 18.8657C48.7154 18.7241 48.9137 18.6957 49.0837 18.7807L59.8502 24.249C59.9636 24.3056 60.0769 24.4473 60.0769 24.589C60.1052 24.7306 60.0486 24.8723 59.9636 24.9856L48.6304 36.3471C48.5738 36.4038 48.4604 36.4321 48.3471 36.4321ZM43.3605 25.1273C46.7604 31.5872 48.0354 34.1655 48.5171 35.2138L58.9436 24.759L48.9987 19.7157L43.3605 25.1273Z" fill="black"/>
<path d="M79.4565 74.0586C78.3798 73.8886 77.3599 74.6252 77.1615 75.7019L72.345 102.533C72.175 103.61 72.9116 104.63 73.9883 104.828C74.1016 104.856 74.2149 104.856 74.2999 104.856C75.2632 104.856 76.1132 104.148 76.2549 103.185L81.0715 76.3535C81.2698 75.2486 80.5331 74.2286 79.4565 74.0586Z" fill="#9CCBE5"/>
<path d="M72.345 102.504C72.175 103.581 72.9116 104.601 73.9883 104.799C74.1016 104.828 74.2149 104.828 74.2999 104.828C75.2632 104.828 76.1132 104.119 76.2549 103.156L77.9549 93.6361L74.0733 92.7578L72.345 102.504Z" fill="#C2E4FF"/>
<path d="M74.3283 105.281C74.2149 105.281 74.0733 105.281 73.9316 105.253C73.2799 105.14 72.7133 104.8 72.345 104.262C71.9766 103.723 71.8066 103.1 71.92 102.448L76.7365 75.617C76.9632 74.3137 78.2099 73.407 79.5415 73.6054C80.1932 73.7187 80.7598 74.0587 81.1281 74.597C81.4965 75.1353 81.6665 75.7587 81.5531 76.4103L76.7365 103.242C76.5382 104.403 75.5182 105.281 74.3283 105.281ZM79.1448 74.4553C78.4082 74.4553 77.7282 74.9937 77.6149 75.7587L72.7983 102.59C72.7416 102.987 72.8266 103.412 73.0816 103.723C73.3366 104.063 73.6766 104.29 74.0733 104.346C74.9516 104.488 75.7166 103.893 75.8299 103.072L80.6465 76.2403C80.7031 75.8437 80.6181 75.4187 80.3632 75.107C80.1082 74.767 79.7682 74.5403 79.3715 74.4837C79.3148 74.4837 79.2298 74.4553 79.1448 74.4553Z" fill="black"/>
<path d="M98.4961 74.0586C99.5728 73.8886 100.593 74.6252 100.791 75.7019L105.608 102.533C105.778 103.61 105.041 104.63 103.964 104.828C103.851 104.856 103.738 104.856 103.653 104.856C102.689 104.856 101.839 104.148 101.698 103.185L96.8812 76.3535C96.6828 75.2486 97.4195 74.2286 98.4961 74.0586Z" fill="#9CCBE5"/>
<path d="M101.67 103.156C101.84 104.12 102.661 104.828 103.625 104.828C103.738 104.828 103.823 104.828 103.936 104.8C105.013 104.63 105.749 103.61 105.579 102.505L103.936 93.2964L100.055 94.203L101.67 103.156Z" fill="#C2E4FF"/>
<path d="M103.653 105.281C102.463 105.281 101.443 104.431 101.244 103.241L96.4279 76.41C96.3146 75.7584 96.4846 75.1067 96.8529 74.5967C97.2212 74.0584 97.7879 73.7184 98.4395 73.6051C99.7712 73.4067 101.018 74.285 101.244 75.6167L106.061 102.448C106.174 103.1 106.004 103.751 105.636 104.261C105.268 104.8 104.701 105.14 104.049 105.253C103.908 105.253 103.766 105.281 103.653 105.281ZM98.5812 74.4834C98.1845 74.54 97.8162 74.7667 97.5895 75.1067C97.3346 75.4467 97.2496 75.8433 97.3062 76.2683L102.123 103.1C102.236 103.865 102.888 104.403 103.653 104.403C103.738 104.403 103.823 104.403 103.908 104.375C104.304 104.318 104.673 104.091 104.899 103.751C105.154 103.411 105.239 103.015 105.183 102.59L100.366 75.7584C100.224 74.9367 99.4312 74.3417 98.5812 74.4834Z" fill="black"/>
<path d="M63.3351 71.5365C63.3351 66.3799 64.5251 54.1685 79.3715 54.1685C94.6145 54.1685 96.0312 64.8783 96.0312 72.3581C105.353 72.3581 113.456 73.5198 114.249 80.518C115.043 87.4312 108.781 91.2561 88.778 91.2561C64.5534 91.2845 63.3351 83.5496 63.3351 71.5365Z" fill="#C2E4FF"/>
<path d="M88.8064 91.738C77.3316 91.738 70.305 89.9814 66.6501 86.2414C63.1652 82.6715 62.8818 77.4582 62.8818 71.565C62.8818 64.9068 65.0351 53.772 79.3432 53.772C94.388 53.772 96.3996 64.0285 96.4563 71.9617C105.466 71.99 113.824 73.1233 114.674 80.5182C114.958 82.9548 114.391 84.9098 112.974 86.4964C109.801 90.0663 102.123 91.738 88.8064 91.738ZM79.3715 54.622C73.1383 54.622 68.7184 56.8036 66.1968 61.1385C64.6101 63.8585 63.8168 67.3717 63.8168 71.5367C63.8168 83.4931 65.0351 90.8313 88.8347 90.8313C101.698 90.8313 109.404 89.2164 112.379 85.8448C113.626 84.4564 114.108 82.7281 113.853 80.5748C113.059 73.7466 104.843 72.8116 96.0596 72.8116C95.8046 72.8116 95.6063 72.6133 95.6063 72.3583C95.6063 64.1135 93.7363 54.622 79.3715 54.622Z" fill="black"/>
<path d="M107.194 55.8404C105.211 58.617 107.109 65.7002 118.782 66.6069C126.829 67.2302 128.926 63.7453 128.897 61.082C128.869 58.2487 126.914 56.2937 124.307 56.2087C122.041 56.1237 120.737 57.0304 117.848 56.5771C115.241 56.1521 114.023 55.0754 112.294 54.4804C110.566 53.8288 108.384 54.1688 107.194 55.8404Z" fill="white"/>
<path d="M120.624 67.1169C120.029 67.1169 119.406 67.0886 118.754 67.0319C115.893 66.8052 108.979 65.7569 106.656 60.7703C105.778 58.9004 105.863 56.8887 106.826 55.5571C108.214 53.6305 110.651 53.4038 112.464 53.9988C113.116 54.2255 113.654 54.4804 114.249 54.7921C115.269 55.3021 116.346 55.8121 117.961 56.0954C119.576 56.3504 120.709 56.1521 121.786 55.9538C122.579 55.8121 123.401 55.6704 124.364 55.6988C127.282 55.8121 129.351 57.9937 129.379 61.0253C129.407 62.527 128.812 63.9153 127.707 64.9353C126.177 66.4086 123.797 67.1169 120.624 67.1169ZM107.563 56.0954C106.798 57.1721 106.769 58.872 107.478 60.402C109.603 64.9636 116.119 65.9269 118.839 66.1252C122.664 66.4086 125.497 65.7853 127.084 64.3119C128.302 63.1503 128.472 61.762 128.472 61.0537C128.444 58.532 126.716 56.6904 124.307 56.6054C123.429 56.5771 122.692 56.6904 121.899 56.8321C120.737 57.0304 119.547 57.2571 117.791 56.9737C116.034 56.6904 114.873 56.1238 113.824 55.6138C113.258 55.3304 112.719 55.0754 112.153 54.8771C110.679 54.3671 108.668 54.5371 107.563 56.0954Z" fill="black"/>
<path d="M98.7513 71.5936C100.225 67.9953 104.333 66.267 107.931 67.7404L118.613 72.6703C118.613 72.6703 121.446 71.7919 123.542 73.4636C124.931 74.5686 126.036 77.0902 123.769 82.1334C120.823 88.6783 118.499 87.8283 113.739 85.9017L102.576 80.7735C99.0063 79.3001 97.2779 75.1919 98.7513 71.5936Z" fill="white"/>
<path d="M118.612 87.7431C117.224 87.7431 115.609 87.1481 113.598 86.3265L102.406 81.1699C100.564 80.4333 99.1194 78.9883 98.3545 77.1466C97.5895 75.305 97.5611 73.265 98.3261 71.4234C99.0911 69.5818 100.508 68.1368 102.349 67.3435C104.191 66.5785 106.231 66.5502 108.073 67.3151L118.612 72.1884C119.292 72.0184 121.814 71.5367 123.797 73.1234C125.044 74.115 126.716 76.6083 124.166 82.3315C122.381 86.3831 120.709 87.7431 118.612 87.7431ZM105.268 67.6551C104.389 67.6551 103.539 67.8251 102.718 68.1651C101.103 68.8451 99.8278 70.1201 99.1478 71.7634C98.4678 73.4067 98.4961 75.1917 99.1761 76.8066C99.8561 78.4216 101.131 79.6966 102.774 80.3766L113.966 85.5332C118.641 87.4315 120.567 88.2248 123.401 81.9916C125.724 76.835 124.336 74.6817 123.316 73.86C121.417 72.3584 118.811 73.1234 118.782 73.1517C118.669 73.18 118.556 73.18 118.471 73.1234L107.789 68.1935C106.968 67.8251 106.118 67.6551 105.268 67.6551Z" fill="black"/>
<path d="M89.883 74.1713C92.4613 71.253 96.9095 70.998 99.8278 73.5763L108.271 81.7928C108.271 81.7928 111.246 81.9062 112.663 84.1728C113.598 85.6744 113.314 88.2811 109.489 92.3043C104.531 97.5176 103.143 96.0726 99.3178 92.6727L90.478 84.1161C87.5597 81.5095 87.3047 77.0613 89.883 74.1713Z" fill="white"/>
<path d="M104.219 96.1582C102.576 96.1582 101.188 94.9115 99.2329 93.1832L99.0062 92.9849L90.1664 84.4284C87.1064 81.7084 86.8231 76.9485 89.5431 73.8602C92.2914 70.772 97.0229 70.4886 100.111 73.2369L108.441 81.3401C109.149 81.3968 111.671 81.7934 113.003 83.9184C113.909 85.3634 114.079 88.055 109.773 92.5882C107.364 95.1665 105.693 96.1582 104.219 96.1582ZM90.2231 74.4552C87.8148 77.1752 88.0414 81.3401 90.7614 83.7767L99.6012 92.3333L99.8279 92.5316C103.483 95.7899 104.588 96.7532 109.149 91.9933C112.209 88.7633 113.314 86.0717 112.266 84.4284C110.991 82.3884 108.271 82.2468 108.243 82.2468C108.129 82.2468 108.016 82.1901 107.959 82.1334L99.5162 73.9169C96.8246 71.4803 92.6314 71.7353 90.2231 74.4552Z" fill="black"/>
<path d="M78.7766 35.4127C80.3916 35.1861 81.4965 33.6844 81.2699 32.0978L78.9466 15.9197C78.7199 14.3048 77.2183 13.1998 75.6316 13.4264C74.0167 13.6531 72.9117 15.1547 73.1383 16.7414L75.4616 32.9194C75.6883 34.5344 77.1616 35.6394 78.7766 35.4127Z" fill="#FF7300"/>
<path d="M73.1099 16.7692C72.8832 15.1542 73.9882 13.6809 75.6032 13.4543C77.2182 13.2276 78.6915 14.3326 78.9181 15.9476L79.1731 17.7892L73.3649 18.6392L73.1099 16.7692Z" fill="white"/>
<path d="M78.3516 35.8937C76.7083 35.8937 75.2633 34.6753 75.0083 33.0037L72.685 16.8257C72.5433 15.919 72.77 15.0407 73.3366 14.3324C73.875 13.5957 74.6683 13.1424 75.5466 13.0007C77.3882 12.7457 79.1165 14.0207 79.3715 15.8623L81.6948 32.0404C81.8365 32.947 81.6098 33.8254 81.0432 34.5337C80.5049 35.2703 79.7115 35.7237 78.8332 35.8653C78.6632 35.8653 78.5216 35.8937 78.3516 35.8937ZM76.0283 13.8507C75.9149 13.8507 75.8016 13.8507 75.6599 13.879C75.0083 13.964 74.4133 14.3324 74.0166 14.8424C73.62 15.3807 73.45 16.0323 73.535 16.684L75.8583 32.862C76.0566 34.222 77.3032 35.157 78.6632 34.9587C79.3149 34.8737 79.9099 34.5053 80.3065 33.9954C80.7032 33.457 80.8732 32.8054 80.7882 32.1537L78.4649 15.9757C78.2949 14.7574 77.2466 13.8507 76.0283 13.8507Z" fill="black"/>
<path d="M98.8078 32.0123C100.338 31.7857 101.386 30.369 101.188 28.8391L98.9495 13.426C98.7228 11.896 97.3062 10.8477 95.7762 11.046C94.2462 11.2727 93.1979 12.6893 93.3963 14.2193L95.6346 29.6324C95.8612 31.1624 97.2779 32.239 98.8078 32.0123Z" fill="#FF7300"/>
<path d="M93.4247 14.2191C93.198 12.6891 94.2747 11.2724 95.8046 11.0458C97.3346 10.8191 98.7513 11.8958 98.9779 13.4257L99.2329 15.1824L93.708 15.9757L93.4247 14.2191Z" fill="white"/>
<path d="M98.4111 32.4941C97.7028 32.4941 97.0511 32.2674 96.4845 31.8424C95.8045 31.3324 95.3512 30.5674 95.2095 29.7175L92.9712 14.3044C92.7162 12.5477 93.9345 10.8761 95.7195 10.6211C97.4761 10.3661 99.1478 11.5844 99.4028 13.3694L101.641 28.7825C101.754 29.6325 101.556 30.4824 101.018 31.1908C100.508 31.8708 99.7428 32.3241 98.8928 32.4657C98.7228 32.4657 98.5528 32.4941 98.4111 32.4941ZM96.2012 11.4711C96.0878 11.4711 95.9745 11.4711 95.8612 11.4994C94.5862 11.6978 93.6795 12.8877 93.8779 14.1627L96.1162 29.5758C96.2012 30.1991 96.5412 30.7374 97.0228 31.1341C97.5328 31.5024 98.1561 31.6724 98.7794 31.5874C99.4028 31.5024 99.9411 31.1624 100.338 30.6808C100.706 30.1708 100.876 29.5475 100.791 28.9241L98.5528 13.5111C98.4678 12.8877 98.1278 12.3494 97.6461 11.9528C97.1928 11.6128 96.6828 11.4711 96.2012 11.4711Z" fill="black"/>
<path d="M95.3795 82.6715C109.574 80.6315 115.043 75.7866 117.281 67.4001C119.434 59.4386 116.346 42.7222 112.804 36.4606C106.628 25.4958 95.7195 25.6092 87.3047 26.7991C78.8615 28.0174 68.4067 30.9924 65.5734 43.2605C63.9584 50.2587 65.7434 67.1734 70.05 74.2C74.5832 81.6515 81.1848 84.7398 95.3795 82.6715Z" fill="#FF7300"/>
<path d="M80.6466 28.6693C80.4482 28.6693 80.2782 28.556 80.2216 28.3577C80.1649 28.131 80.2782 27.876 80.5332 27.791C82.4882 27.2244 84.6982 26.7427 87.2765 26.3744C90.3364 25.9211 92.858 25.7511 95.238 25.8361C95.493 25.8361 95.6913 26.0627 95.663 26.2894C95.663 26.5444 95.4646 26.7427 95.2097 26.7144C92.8864 26.6294 90.4214 26.7994 87.3898 27.2527C84.8398 27.621 82.6865 28.0744 80.7599 28.641C80.7316 28.6693 80.6749 28.6693 80.6466 28.6693Z" fill="black"/>
<path d="M87.5314 83.7766C78.8899 83.7766 73.5916 80.8866 69.6817 74.4834C65.4601 67.5702 63.4768 50.4571 65.1768 43.2039C66.5367 37.3107 69.8233 32.8908 74.9516 30.0858C75.1782 29.9725 75.4332 30.0575 75.5466 30.2558C75.6599 30.4825 75.5749 30.7375 75.3766 30.8508C70.4183 33.5708 67.3584 37.679 66.0267 43.3739C64.3834 50.4855 66.3101 67.2302 70.4467 73.9734C75.2349 81.7932 82.2048 84.1165 95.3229 82.2182C108.441 80.3199 114.476 76.1267 116.856 67.2868C118.924 59.637 116.006 43.0339 112.436 36.6874C109.688 31.8141 105.863 28.8108 100.706 27.4792C100.479 27.4225 100.338 27.1675 100.394 26.9409C100.451 26.7142 100.706 26.5442 100.933 26.6292C106.259 27.9892 110.368 31.2475 113.201 36.2624C116.856 42.7506 119.802 59.722 117.706 67.5418C115.213 76.8067 108.979 81.1699 95.4362 83.1249C92.5463 83.5499 89.9113 83.7766 87.5314 83.7766Z" fill="black"/>
<path d="M95.4645 56.1801C78.3232 58.22 75.3199 50.9668 75.0932 47.3686C74.1866 33.9955 85.3214 31.5022 92.6879 30.9072C100.876 30.2555 109.433 32.6355 110.906 43.5436C111.388 47.1136 110.453 54.3951 95.4645 56.1801Z" fill="white"/>
<path d="M79.8248 49.267C79.6832 49.267 79.5698 49.182 79.4848 49.0686C79.3715 48.8703 79.4565 48.6437 79.6265 48.5587L82.4881 46.972C82.6864 46.8587 82.9131 46.9437 82.9981 47.1137C83.1114 47.312 83.0264 47.5387 82.8564 47.6237L79.9948 49.2103C79.9665 49.267 79.8815 49.267 79.8248 49.267Z" fill="black"/>
<path d="M82.4315 45.1024C82.4031 45.1024 82.4031 45.1024 82.3748 45.1024L79.1449 44.6207C78.9465 44.5924 78.7765 44.3941 78.8332 44.1958C78.8615 43.9974 79.0599 43.8274 79.2582 43.8841L82.4881 44.3658C82.6865 44.3941 82.8565 44.5924 82.7998 44.7907C82.7998 44.9891 82.6298 45.1024 82.4315 45.1024Z" fill="black"/>
<path d="M107.279 46.4617C107.223 46.4617 107.166 46.4617 107.109 46.4334L104.899 45.385C104.701 45.3 104.616 45.0734 104.729 44.8751C104.814 44.6767 105.041 44.5917 105.239 44.7051L107.449 45.7534C107.648 45.8384 107.733 46.065 107.619 46.2634C107.563 46.3767 107.421 46.4617 107.279 46.4617Z" fill="black"/>
<path d="M104.786 42.8075C104.644 42.8075 104.531 42.7509 104.446 42.6092C104.333 42.4392 104.389 42.1842 104.588 42.0992L106.288 41.1076C106.458 40.9942 106.713 41.0509 106.798 41.2492C106.911 41.4192 106.854 41.6742 106.656 41.7592L104.956 42.7509C104.928 42.8075 104.871 42.8075 104.786 42.8075Z" fill="black"/>
<path d="M87.8997 41.7592C87.9563 42.4392 87.4747 43.0625 86.7947 43.1475C86.1147 43.2042 85.5197 42.7225 85.4347 42.0142C85.378 41.3342 85.8597 40.7109 86.5397 40.6259C87.2197 40.5692 87.843 41.0792 87.8997 41.7592Z" fill="black"/>
<path d="M102.689 40.2573C102.746 40.9373 102.264 41.5606 101.584 41.6456C100.904 41.7023 100.309 41.2206 100.224 40.5123C100.168 39.8323 100.649 39.209 101.329 39.124C102.009 39.039 102.604 39.549 102.689 40.2573Z" fill="black"/>
<path d="M96.3145 41.419C96.3995 42.269 95.7762 43.034 94.9545 43.119C94.1046 43.204 93.3679 42.5807 93.2829 41.7307C93.1979 40.8807 93.8212 40.1157 94.6429 40.0307C95.4929 39.9457 96.2295 40.569 96.3145 41.419Z" fill="#F72E13"/>
<path d="M92.0079 46.1786C90.7896 46.1786 90.0247 46.0936 89.9397 46.0936C89.6847 46.0653 89.5147 45.8386 89.543 45.612C89.5713 45.357 89.798 45.187 90.0246 45.2153C90.0813 45.2153 95.3796 45.7536 100.083 43.912C100.309 43.827 100.564 43.9403 100.649 44.167C100.734 44.3937 100.621 44.6487 100.394 44.7337C97.3062 45.9236 94.0479 46.1786 92.0079 46.1786Z" fill="black"/>
<path d="M73.6199 59.6371C71.41 62.697 73.5349 70.5736 86.483 71.5652C95.4079 72.2452 97.7595 68.3919 97.7029 65.417C97.6745 62.2721 95.4929 60.0904 92.6029 60.0054C90.1097 59.9204 88.6363 60.9404 85.4347 60.4304C82.5448 59.9771 81.1848 58.7588 79.2582 58.1071C77.3599 57.4271 74.9516 57.7955 73.6199 59.6371Z" fill="white"/>
<path d="M88.5231 72.1032C87.8714 72.1032 87.1631 72.0748 86.4548 72.0182C83.2815 71.7632 75.6316 70.6015 73.0817 65.1049C72.1184 63.0366 72.2034 60.855 73.2517 59.3534C74.7817 57.2284 77.445 56.9734 79.4282 57.6534C80.1366 57.9084 80.7599 58.1917 81.4115 58.5317C82.5449 59.0984 83.7348 59.6934 85.5198 59.9767C87.3331 60.26 88.5798 60.0334 89.7697 59.835C90.6481 59.6934 91.5547 59.5234 92.6314 59.5517C95.833 59.665 98.0996 62.0733 98.1563 65.4166C98.1846 67.0599 97.5329 68.5899 96.3146 69.7232C94.6713 71.3098 92.0364 72.1032 88.5231 72.1032ZM77.445 58.2484C76.17 58.2484 74.8667 58.7301 73.9883 59.92C73.1384 61.11 73.0817 63.0083 73.9033 64.765C76.255 69.8365 83.5365 70.9132 86.5398 71.1682C90.7897 71.5082 93.963 70.7998 95.7196 69.1282C97.1079 67.8249 97.2779 66.2949 97.2779 65.4733C97.2496 62.64 95.323 60.6 92.6314 60.4867C91.6397 60.4584 90.8181 60.6 89.9681 60.7417C88.6931 60.9684 87.3614 61.195 85.4065 60.8834C83.4798 60.5717 82.1765 59.92 81.0432 59.3534C80.4199 59.0417 79.8249 58.7584 79.1733 58.5317C78.6349 58.3334 78.0399 58.2484 77.445 58.2484Z" fill="black"/>
<path d="M55.402 57.1152H47.1005H44.7488H31.8574C30.5258 57.1152 29.4208 58.2769 29.4208 59.6935C29.4208 61.1102 30.4974 62.2718 31.8574 62.2718H44.7488H47.1005H55.402C55.1187 60.7135 55.1187 58.9002 55.402 57.1152Z" fill="#FFE94D"/>
<path d="M55.4019 62.7253H31.8574C30.2707 62.7253 28.9674 61.3654 28.9674 59.6937C28.9674 58.0221 30.2707 56.6621 31.8574 56.6621H55.4303C55.5719 56.6621 55.6853 56.7188 55.7703 56.8321C55.8553 56.9454 55.8836 57.0588 55.8836 57.2004C55.6003 58.9004 55.6003 60.6854 55.8836 62.187C55.9119 62.3287 55.8836 62.442 55.7986 62.5553C55.6853 62.6687 55.5436 62.7253 55.4019 62.7253ZM31.8574 57.5688C30.7524 57.5688 29.8741 58.5321 29.8741 59.6937C29.8741 60.8554 30.7524 61.8187 31.8574 61.8187H54.892C54.6936 60.487 54.6936 59.0137 54.892 57.5688H31.8574Z" fill="black"/>
<path d="M55.4018 62.2718H44.7486C43.417 62.2718 42.312 61.1102 42.312 59.6935C42.312 58.2769 43.3887 57.1152 44.7486 57.1152H55.4018C55.1185 58.9002 55.1185 60.7135 55.4018 62.2718Z" fill="white"/>
<path d="M55.4019 62.7253H44.7487C43.1621 62.7253 41.8588 61.3654 41.8588 59.6937C41.8588 58.0221 43.1621 56.6621 44.7487 56.6621H55.4019C55.5435 56.6621 55.6569 56.7188 55.7419 56.8321C55.8269 56.9454 55.8552 57.0588 55.8552 57.2004C55.5719 58.9004 55.5719 60.6854 55.8552 62.187C55.8835 62.3287 55.8552 62.442 55.7702 62.5553C55.6852 62.6687 55.5435 62.7253 55.4019 62.7253ZM44.7487 57.5688C43.6437 57.5688 42.7654 58.5321 42.7654 59.6937C42.7654 60.8554 43.6437 61.8187 44.7487 61.8187H54.8919C54.6935 60.487 54.6935 59.0137 54.8919 57.5688H44.7487Z" fill="black"/>
<path d="M52.9937 62.272H44.6921H42.3405H29.4491C28.1174 62.272 27.0125 63.4336 27.0125 64.8503C27.0125 66.2669 28.0891 67.4286 29.4491 67.4286H42.3405H44.6921H52.9937C52.7103 65.8702 52.682 64.0569 52.9937 62.272Z" fill="#A7E150"/>
<path d="M52.9935 67.8821H29.4489C27.8623 67.8821 26.559 66.5221 26.559 64.8505C26.559 63.1788 27.8623 61.8188 29.4489 61.8188H53.0218C53.1635 61.8188 53.2768 61.8755 53.3618 61.9888C53.4468 62.1022 53.4752 62.2155 53.4752 62.3572C53.1918 64.0571 53.1918 65.8421 53.4752 67.3438C53.5035 67.4854 53.4752 67.5987 53.3902 67.7121C53.2485 67.8254 53.1352 67.8821 52.9935 67.8821ZM29.4489 62.7255C28.3439 62.7255 27.4656 63.6888 27.4656 64.8505C27.4656 66.0121 28.3439 66.9754 29.4489 66.9754H52.4835C52.2852 65.6438 52.2852 64.1705 52.4835 62.7255H29.4489Z" fill="black"/>
<path d="M52.9937 67.4286H42.3406C41.0089 67.4286 39.9039 66.2669 39.9039 64.8503C39.9039 63.4336 40.9806 62.272 42.3406 62.272H52.9937C52.682 64.0569 52.7104 65.8702 52.9937 67.4286Z" fill="white"/>
<path d="M52.9937 67.8821H42.3405C40.7539 67.8821 39.4506 66.5221 39.4506 64.8505C39.4506 63.1788 40.7539 61.8188 42.3405 61.8188H52.9937C53.1353 61.8188 53.2487 61.8755 53.3337 61.9888C53.4187 62.1022 53.447 62.2155 53.4187 62.3572C53.1353 64.0571 53.1353 65.8421 53.4187 67.3438C53.447 67.4854 53.4187 67.5987 53.3337 67.7121C53.2487 67.8254 53.1353 67.8821 52.9937 67.8821ZM42.3405 62.7255C41.2355 62.7255 40.3572 63.6888 40.3572 64.8505C40.3572 66.0121 41.2355 66.9754 42.3405 66.9754H52.4837C52.2853 65.6438 52.2853 64.1705 52.4837 62.7255H42.3405Z" fill="black"/>
<path d="M45.8253 72.5853H30.5539C29.2223 72.5853 28.1173 71.4236 28.1173 70.007C28.1173 68.5904 29.194 67.4287 30.5539 67.4287H45.797C45.5137 69.2137 45.5137 71.027 45.8253 72.5853Z" fill="#37AF84"/>
<path d="M45.8254 73.0378H30.554C28.9674 73.0378 27.6641 71.6779 27.6641 70.0062C27.6641 68.3346 28.9674 66.9746 30.554 66.9746H45.7971C45.9387 66.9746 46.0521 67.0313 46.1371 67.1446C46.2221 67.2579 46.2504 67.3713 46.2504 67.5129C45.9671 69.2129 45.9671 70.9979 46.2504 72.4995C46.2787 72.6412 46.2504 72.7545 46.1654 72.8678C46.0804 72.9528 45.9388 73.0378 45.8254 73.0378ZM30.554 67.8813C29.449 67.8813 28.5707 68.8446 28.5707 70.0062C28.5707 71.1679 29.449 72.1312 30.554 72.1312H45.2871C45.0888 70.7995 45.0888 69.3262 45.2871 67.8813H30.554Z" fill="black"/>
<path d="M54.127 72.5853H43.4739C42.1422 72.5853 41.0372 71.4236 41.0372 70.007C41.0372 68.5904 42.1139 67.4287 43.4739 67.4287H54.127C53.8153 69.2137 53.8437 71.027 54.127 72.5853Z" fill="white"/>
<path d="M54.127 73.0378H43.4738C41.8872 73.0378 40.5839 71.6779 40.5839 70.0062C40.5839 68.3346 41.8872 66.9746 43.4738 66.9746H54.127C54.2686 66.9746 54.382 67.0313 54.467 67.1446C54.552 67.2579 54.5803 67.3713 54.552 67.5129C54.2686 69.2129 54.2686 70.9979 54.552 72.4995C54.5803 72.6412 54.552 72.7545 54.467 72.8678C54.382 72.9528 54.2686 73.0378 54.127 73.0378ZM43.4738 67.8813C42.3688 67.8813 41.4905 68.8446 41.4905 70.0062C41.4905 71.1679 42.3688 72.1312 43.4738 72.1312H53.617C53.4186 70.7995 53.4186 69.3262 53.617 67.8813H43.4738Z" fill="black"/>
<path d="M127.112 72.5566H84.6131C83.7631 72.5566 83.0548 71.8482 83.0548 70.9982C83.0548 70.1483 83.7631 69.4399 84.6131 69.4399H127.112C127.962 69.4399 128.671 70.1483 128.671 70.9982C128.671 71.8482 127.962 72.5566 127.112 72.5566Z" fill="#C9C9C9"/>
<path d="M127.112 73.0101H84.6131C83.5081 73.0101 82.6014 72.1034 82.6014 70.9984C82.6014 69.8935 83.5081 68.9868 84.6131 68.9868H127.112C128.217 68.9868 129.124 69.8935 129.124 70.9984C129.124 72.1034 128.217 73.0101 127.112 73.0101ZM84.6131 69.8935C83.9898 69.8935 83.5081 70.4035 83.5081 70.9984C83.5081 71.6218 84.0181 72.1034 84.6131 72.1034H127.112C127.736 72.1034 128.217 71.5934 128.217 70.9984C128.217 70.3751 127.707 69.8935 127.112 69.8935H84.6131Z" fill="black"/>
<path d="M127.084 72.5565H100.905C99.7995 72.5565 99.0345 71.4231 99.4595 70.4032L105.098 57.0017C105.523 55.9817 106.543 55.3018 107.648 55.3018H133.006C134.111 55.3018 134.876 56.4351 134.451 57.4551L128.501 71.5931C128.302 72.1881 127.736 72.5565 127.084 72.5565Z" fill="#C9C9C9"/>
<path d="M127.084 73.01H100.904C100.224 73.01 99.6012 72.67 99.2328 72.1033C98.8645 71.5367 98.8079 70.8284 99.0628 70.205L104.701 56.8036C105.211 55.6136 106.373 54.8203 107.676 54.8203H133.034C133.714 54.8203 134.337 55.1603 134.706 55.727C135.074 56.2936 135.159 57.0019 134.876 57.6253L128.926 71.7634C128.642 72.5283 127.906 73.01 127.084 73.01ZM107.704 55.7553C106.769 55.7553 105.919 56.322 105.551 57.1719L99.9128 70.5734C99.7712 70.9134 99.7995 71.31 99.9978 71.6217C100.196 71.9333 100.536 72.1317 100.933 72.1317H127.112C127.566 72.1317 127.962 71.8767 128.132 71.4517L134.082 57.3136C134.224 56.9736 134.196 56.577 133.997 56.2653C133.799 55.9536 133.459 55.7553 133.062 55.7553H107.704Z" fill="black"/>
<path d="M119.151 63.9433C119.094 64.4816 118.556 64.9066 117.961 64.9066C117.366 64.9066 116.941 64.4533 116.997 63.915C117.054 63.3767 117.592 62.9517 118.187 62.9517C118.782 62.9517 119.207 63.405 119.151 63.9433Z" fill="#ADADAD"/>
<path d="M26.7857 74.0586C25.7091 73.8886 24.6891 74.6252 24.4908 75.7019L19.6742 102.533C19.5042 103.61 20.2408 104.63 21.3175 104.828C21.4308 104.856 21.5441 104.856 21.6291 104.856C22.5925 104.856 23.4424 104.148 23.5841 103.185L28.4007 76.3535C28.599 75.2486 27.8624 74.2286 26.7857 74.0586Z" fill="#E6F5FF"/>
<path d="M21.6292 105.281C21.5158 105.281 21.3742 105.281 21.2325 105.253C20.5808 105.14 20.0142 104.8 19.6459 104.262C19.2775 103.723 19.1075 103.1 19.2209 102.448L24.0375 75.617C24.2641 74.3137 25.5108 73.407 26.8424 73.6054C27.4941 73.7187 28.0607 74.0587 28.429 74.597C28.7974 75.1353 28.9674 75.7587 28.854 76.4103L24.0375 103.242C23.8391 104.403 22.8475 105.281 21.6292 105.281ZM26.4741 74.4553C25.7374 74.4553 25.0574 74.9937 24.9441 75.7587L20.1275 102.59C20.0709 102.987 20.1559 103.412 20.4108 103.723C20.6658 104.063 21.0058 104.29 21.4025 104.346C22.2808 104.488 23.0458 103.893 23.1591 103.072L27.9757 76.2403C28.0324 75.8437 27.9474 75.4187 27.6924 75.107C27.4374 74.767 27.0974 74.5403 26.7007 74.4837C26.6157 74.4837 26.5307 74.4553 26.4741 74.4553Z" fill="black"/>
<path d="M121.899 74.0586C122.976 73.8886 123.996 74.6252 124.194 75.7019L129.011 102.533C129.181 103.61 128.444 104.63 127.367 104.828C127.254 104.856 127.141 104.856 127.056 104.856C126.092 104.856 125.242 104.148 125.101 103.185L120.284 76.3535C120.086 75.2486 120.822 74.2286 121.899 74.0586Z" fill="#E6F5FF"/>
<path d="M127.027 105.281C125.837 105.281 124.817 104.431 124.619 103.241L119.802 76.41C119.689 75.7584 119.859 75.1067 120.227 74.5967C120.596 74.0584 121.162 73.7184 121.814 73.6051C123.146 73.4067 124.392 74.285 124.619 75.6167L129.436 102.448C129.549 103.1 129.379 103.751 129.011 104.261C128.642 104.8 128.076 105.14 127.424 105.253C127.282 105.253 127.169 105.281 127.027 105.281ZM121.984 74.4834C121.587 74.54 121.219 74.7667 120.992 75.1067C120.737 75.4467 120.652 75.8433 120.709 76.2683L125.526 103.1C125.639 103.865 126.291 104.403 127.056 104.403C127.141 104.403 127.226 104.403 127.311 104.375C127.707 104.318 128.076 104.091 128.302 103.751C128.557 103.411 128.642 103.015 128.586 102.59L123.769 75.7584C123.599 74.9367 122.806 74.3417 121.984 74.4834Z" fill="black"/>
<path d="M135.527 72.585H13.1577V79.2715H135.527V72.585Z" fill="#E6F5FF"/>
<path d="M135.527 79.6967H13.1577C12.9027 79.6967 12.7043 79.4984 12.7043 79.2434V72.5568C12.7043 72.3018 12.9027 72.1035 13.1577 72.1035H135.527C135.782 72.1035 135.981 72.3018 135.981 72.5568V79.2434C135.981 79.4984 135.782 79.6967 135.527 79.6967ZM13.5827 78.8184H135.074V73.0385H13.5827V78.8184Z" fill="black"/>
<path d="M36.3056 101.343C36.0506 101.343 35.8523 101.145 35.8523 100.89V86.1564C35.8523 85.9014 36.0506 85.7031 36.3056 85.7031C36.5606 85.7031 36.7589 85.9014 36.7589 86.1564V100.89C36.7589 101.145 36.5606 101.343 36.3056 101.343Z" fill="black"/>
<path d="M36.6739 97.2913C37.3539 98.1413 39.1672 98.1413 40.7822 97.2913C42.3971 96.4413 43.2471 94.713 42.3971 93.438C41.6038 92.2764 39.5355 91.7947 37.7506 93.268C36.2773 94.458 35.8806 96.2996 36.6739 97.2913Z" fill="#48C187"/>
<path d="M36.6739 97.7447C36.5889 97.7447 36.504 97.7164 36.419 97.6597C36.2206 97.5181 36.164 97.2347 36.3056 97.0364C37.4956 95.2514 39.3939 94.2031 39.4789 94.1465C39.7056 94.0331 39.9889 94.1181 40.1022 94.3165C40.2156 94.5431 40.1306 94.8264 39.9322 94.9398C39.9039 94.9398 38.1473 95.9314 37.0706 97.5181C36.9573 97.6881 36.8156 97.7447 36.6739 97.7447Z" fill="#1FA05F"/>
<path d="M38.3739 98.3962C37.4956 98.3962 36.7306 98.1129 36.3056 97.5746C35.3423 96.3279 35.8523 94.2029 37.4672 92.8996C38.4305 92.1063 39.5922 91.7663 40.6688 91.9363C41.5472 92.078 42.3121 92.5313 42.7655 93.183C43.1621 93.778 43.2755 94.4863 43.1055 95.1946C42.8505 96.1862 42.0572 97.1212 40.9805 97.6879C40.1022 98.1695 39.1672 98.3962 38.3739 98.3962ZM37.0139 97.0079C37.4956 97.6029 39.0255 97.6879 40.5555 96.8946C41.4055 96.4412 42.0288 95.7329 42.1988 94.9963C42.2838 94.6846 42.3121 94.1746 42.0005 93.7213C41.6888 93.268 41.1505 92.9563 40.5272 92.8713C39.6772 92.758 38.7989 93.013 38.0339 93.6363C36.7022 94.6846 36.4472 96.2712 37.0139 97.0079Z" fill="black"/>
<path d="M36.2772 95.0809C35.5972 95.9309 33.7839 95.9309 32.169 95.0809C30.554 94.2309 29.704 92.5026 30.554 91.2276C31.3473 90.066 33.5573 89.4143 35.2006 91.0576C36.4755 92.3609 37.0422 94.0892 36.2772 95.0809Z" fill="#48C187"/>
<path d="M36.2772 95.5342C36.1355 95.5342 35.9939 95.4492 35.9089 95.3359C34.8322 93.7493 33.0756 92.7576 33.0472 92.7576C32.8206 92.6443 32.7356 92.3609 32.8772 92.1343C32.9906 91.9076 33.2739 91.8226 33.5006 91.9643C33.5856 92.0209 35.4839 93.0409 36.6738 94.8542C36.8155 95.0526 36.7588 95.3359 36.5605 95.4776C36.4472 95.5059 36.3622 95.5342 36.2772 95.5342Z" fill="#1FA05F"/>
<path d="M34.5489 96.186C33.7273 96.186 32.8206 95.9593 31.9423 95.4777C30.8657 94.911 30.0723 93.976 29.8173 92.9844C29.6473 92.2477 29.7607 91.5677 30.1573 90.9727C30.6673 90.2361 31.574 89.7261 32.5656 89.6128C33.6423 89.4994 34.6906 89.8961 35.4839 90.7177C37.0139 92.276 37.4955 94.2027 36.5889 95.3643C36.1922 95.9026 35.4556 96.186 34.5489 96.186ZM32.934 90.5194C32.849 90.5194 32.764 90.5194 32.679 90.5194C31.9706 90.5761 31.2623 90.9727 30.9223 91.4827C30.6107 91.9644 30.639 92.446 30.724 92.7577C30.9223 93.4944 31.5173 94.2027 32.3673 94.656C33.8973 95.4777 35.4272 95.3643 35.9089 94.7693C36.5039 94.0327 36.0506 92.531 34.8606 91.3411C34.1806 90.6894 33.4723 90.5194 32.934 90.5194Z" fill="black"/>
<path d="M36.7305 90.6614C37.2972 91.398 38.8555 91.398 40.2438 90.6614C41.6321 89.9247 42.3404 88.4514 41.6321 87.3747C40.9521 86.3831 39.1955 85.9864 37.6655 87.2331C36.3905 88.2247 36.0506 89.8114 36.7305 90.6614Z" fill="#48C187"/>
<path d="M36.7306 91.1147C36.6456 91.1147 36.5606 91.0863 36.4756 91.0297C36.2773 90.888 36.2206 90.6047 36.3623 90.4063C37.3822 88.8764 39.0255 87.9697 39.1105 87.9414C39.3372 87.8281 39.6205 87.9131 39.7339 88.1114C39.8472 88.338 39.7622 88.6214 39.5639 88.7347C39.5355 88.7347 38.0622 89.5564 37.1556 90.9163C37.0139 91.0297 36.8723 91.1147 36.7306 91.1147Z" fill="#1FA05F"/>
<path d="M38.1755 91.6532C37.4106 91.6532 36.7306 91.3982 36.3622 90.9166C35.5123 89.8399 35.9656 87.97 37.3539 86.8366C38.2039 86.1567 39.1955 85.845 40.1588 85.9867C40.9238 86.1 41.6038 86.4966 42.0005 87.0916C42.3405 87.6016 42.4538 88.2249 42.2838 88.8766C42.0571 89.7266 41.3772 90.5482 40.4422 91.0582C39.6772 91.4549 38.8839 91.6532 38.1755 91.6532ZM37.0706 90.3782C37.4389 90.8599 38.7422 90.9166 40.0172 90.2649C40.7255 89.8966 41.2355 89.3016 41.4055 88.6783C41.4905 88.2816 41.4338 87.9416 41.2355 87.63C40.9805 87.2616 40.5555 87.0066 40.0172 86.9216C39.3089 86.8083 38.5722 87.035 37.9205 87.5733C36.8156 88.4516 36.5889 89.7549 37.0706 90.3782Z" fill="black"/>
<path d="M36.3056 86.9783C35.739 87.7149 34.1807 87.7149 32.7923 86.9783C31.404 86.2416 30.6957 84.7683 31.404 83.6916C32.084 82.7 33.8407 82.3033 35.3706 83.55C36.6173 84.57 36.9573 86.1283 36.3056 86.9783Z" fill="#48C187"/>
<path d="M36.3055 87.4593C36.1639 87.4593 36.0222 87.3743 35.9372 87.261C35.0306 85.901 33.5289 85.0794 33.5289 85.0794C33.3023 84.966 33.2173 84.6827 33.3589 84.456C33.4723 84.2294 33.7556 84.1444 33.9823 84.2861C34.0389 84.3144 35.6822 85.221 36.7305 86.751C36.8722 86.9493 36.8155 87.2327 36.6172 87.3743C36.4755 87.431 36.3905 87.4593 36.3055 87.4593Z" fill="#1FA05F"/>
<path d="M34.8324 87.998C34.124 87.998 33.3307 87.7996 32.5657 87.403C31.6307 86.893 30.9508 86.0997 30.7241 85.2213C30.5541 84.598 30.6674 83.9747 31.0074 83.4364C31.4041 82.8414 32.0557 82.4447 32.8491 82.3314C33.8124 82.1897 34.804 82.5014 35.654 83.1814C37.0423 84.3147 37.4956 86.1847 36.6457 87.2613C36.2773 87.743 35.5973 87.998 34.8324 87.998ZM33.3307 83.238C33.2174 83.238 33.1041 83.238 32.9907 83.2664C32.4807 83.3514 32.0274 83.6064 31.7724 83.9747C31.5741 84.2864 31.5174 84.6263 31.6024 85.023C31.7441 85.6463 32.2824 86.2413 32.9907 86.6096C34.2374 87.2896 35.5407 87.2046 35.9373 86.723C36.419 86.0997 36.1923 84.8247 35.0874 83.918C34.549 83.4647 33.9257 83.238 33.3307 83.238Z" fill="black"/>
<path d="M32.339 109.928H40.5838C41.2355 109.928 41.7738 109.39 41.7738 108.738L43.0205 100.493C43.0205 99.8415 42.4821 99.3032 41.8305 99.3032H31.064C30.4123 99.3032 29.874 99.8415 29.874 100.493L31.1207 108.738C31.149 109.39 31.6873 109.928 32.339 109.928Z" fill="#3E9CC6"/>
<path d="M40.5839 110.353H32.339C31.4324 110.353 30.7241 109.644 30.6957 108.738L29.4491 100.521C29.4491 100.493 29.4491 100.465 29.4491 100.465C29.4491 99.5579 30.1858 98.8213 31.0924 98.8213H41.8589C42.7655 98.8213 43.5022 99.5579 43.5022 100.465C43.5022 100.493 43.5022 100.521 43.5022 100.521L42.2555 108.738C42.2272 109.644 41.4906 110.353 40.5839 110.353ZM30.3274 100.436L31.5741 108.653C31.5741 108.681 31.5741 108.709 31.5741 108.709C31.5741 109.134 31.9141 109.474 32.339 109.474H40.5839C41.0089 109.474 41.3489 109.134 41.3489 108.709C41.3489 108.681 41.3489 108.653 41.3489 108.653L42.5955 100.436C42.5672 100.04 42.2555 99.6996 41.8306 99.6996H31.0641C30.6674 99.7279 30.3274 100.04 30.3274 100.436Z" fill="black"/>
<path d="M42.7089 102.703H30.3558C30.1008 102.703 29.9025 102.505 29.9025 102.25C29.9025 101.995 30.1008 101.796 30.3558 101.796H42.7089C42.9639 101.796 43.1622 101.995 43.1622 102.25C43.1906 102.505 42.9639 102.703 42.7089 102.703Z" fill="black"/>
<path d="M232.284 73.1797H229.847C227.751 73.1797 226.051 71.4797 226.051 69.3831V64.7932C226.051 62.6966 227.751 60.9966 229.847 60.9966H232.284C234.381 60.9966 236.081 62.6966 236.081 64.7932V69.3831C236.081 71.4797 234.381 73.1797 232.284 73.1797Z" fill="#646262"/>
<path d="M232.284 73.6332H229.847C227.496 73.6332 225.597 71.7349 225.597 69.3833V64.8217C225.597 62.4701 227.496 60.5718 229.847 60.5718H232.284C234.635 60.5718 236.534 62.4701 236.534 64.8217V69.3833C236.534 71.7349 234.635 73.6332 232.284 73.6332ZM229.847 61.4501C228.006 61.4501 226.504 62.9517 226.504 64.7934V69.355C226.504 71.1966 228.006 72.6982 229.847 72.6982H232.284C234.125 72.6982 235.627 71.1966 235.627 69.355V64.7934C235.627 62.9517 234.125 61.4501 232.284 61.4501H229.847Z" fill="black"/>
<path d="M260.22 73.1797H257.784C255.687 73.1797 253.987 71.4797 253.987 69.3831V64.7932C253.987 62.6966 255.687 60.9966 257.784 60.9966H260.22C262.317 60.9966 264.017 62.6966 264.017 64.7932V69.3831C264.017 71.4797 262.317 73.1797 260.22 73.1797Z" fill="#646262"/>
<path d="M260.22 73.6332H257.784C255.432 73.6332 253.534 71.7349 253.534 69.3833V64.8217C253.534 62.4701 255.432 60.5718 257.784 60.5718H260.22C262.572 60.5718 264.47 62.4701 264.47 64.8217V69.3833C264.47 71.7349 262.544 73.6332 260.22 73.6332ZM257.755 61.4501C255.914 61.4501 254.412 62.9517 254.412 64.7934V69.355C254.412 71.1966 255.914 72.6982 257.755 72.6982H260.192C262.034 72.6982 263.535 71.1966 263.535 69.355V64.7934C263.535 62.9517 262.034 61.4501 260.192 61.4501H257.755Z" fill="black"/>
<path d="M234.55 67.3154C234.55 69.1004 234.097 70.5453 233.53 70.5453C232.964 70.5453 232.51 69.1004 232.51 67.3154C232.51 65.5304 232.964 64.0854 233.53 64.0854C234.069 64.0854 234.55 65.5304 234.55 67.3154Z" fill="black"/>
<path d="M262.827 67.3154C262.827 69.1004 262.374 70.5453 261.807 70.5453C261.24 70.5453 260.787 69.1004 260.787 67.3154C260.787 65.5304 261.24 64.0854 261.807 64.0854C262.374 64.0854 262.827 65.5304 262.827 67.3154Z" fill="black"/>
<path d="M225.257 40.9091L218.117 52.5823C216.871 54.5939 214.236 55.2455 212.224 53.9989C210.213 52.7523 209.561 50.1456 210.808 48.1057L217.947 36.4325C219.194 34.4209 221.829 33.7693 223.841 35.0159C225.852 36.2625 226.504 38.8975 225.257 40.9091Z" fill="#34B7F3"/>
<path d="M211.941 46.292L210.836 48.1053C209.589 50.1169 210.241 52.7519 212.253 53.9985C214.264 55.2452 216.899 54.5935 218.146 52.5819L219.279 50.7402C216.928 49.7203 213.981 47.9636 211.941 46.292Z" fill="#5A6680"/>
<path d="M214.066 42.8071L211.941 46.2921C213.981 47.9637 216.928 49.7203 219.251 50.7403L221.376 47.2554C219.081 46.2354 216.134 44.4788 214.066 42.8071Z" fill="#9DB2C7"/>
<path d="M214.462 55.0754C213.612 55.0754 212.762 54.8488 211.997 54.3954C209.787 53.0355 209.079 50.1172 210.439 47.9072L217.579 36.2341C218.231 35.1574 219.279 34.3925 220.497 34.1091C221.716 33.8258 222.991 34.0241 224.067 34.6758C225.144 35.3274 225.909 36.3758 226.192 37.5941C226.476 38.8124 226.277 40.0874 225.626 41.164L218.486 52.8371C217.607 54.2821 216.077 55.0754 214.462 55.0754ZM221.631 34.8458C221.319 34.8458 221.036 34.8741 220.724 34.9591C219.732 35.1858 218.882 35.8091 218.344 36.6874L211.204 48.3605C210.099 50.1739 210.666 52.5255 212.479 53.6305C214.292 54.7354 216.644 54.1688 217.749 52.3555L224.889 40.6823C225.427 39.804 225.597 38.784 225.342 37.7924C225.116 36.8007 224.492 35.9508 223.614 35.4124C223.019 35.0441 222.311 34.8458 221.631 34.8458Z" fill="black"/>
<path d="M219.251 51.1937C219.194 51.1937 219.137 51.1937 219.081 51.1654C216.616 50.0887 213.641 48.2754 211.657 46.6605C211.487 46.5188 211.431 46.2638 211.572 46.0938L213.697 42.6089C213.754 42.4955 213.867 42.4105 214.009 42.4105C214.122 42.3822 214.264 42.4105 214.377 42.4955C216.304 44.0538 219.194 45.8105 221.602 46.8871C221.716 46.9438 221.801 47.0288 221.857 47.1704C221.886 47.2838 221.886 47.4254 221.801 47.5388L219.676 51.0237C219.562 51.1087 219.392 51.1937 219.251 51.1937ZM212.536 46.2071C214.349 47.6238 216.899 49.1821 219.081 50.1737L220.752 47.4538C218.571 46.4338 216.049 44.9038 214.207 43.4872L212.536 46.2071Z" fill="black"/>
<path d="M264.838 40.9091L271.978 52.5823C273.225 54.5939 275.86 55.2455 277.871 53.9989C279.883 52.7523 280.535 50.1456 279.288 48.1057L272.148 36.4325C270.902 34.4209 268.267 33.7693 266.255 35.0159C264.243 36.2625 263.62 38.8975 264.838 40.9091Z" fill="#34B7F3"/>
<path d="M278.183 46.292L279.288 48.1053C280.535 50.1169 279.883 52.7519 277.872 53.9985C275.86 55.2452 273.225 54.5935 271.978 52.5819L270.845 50.7402C273.168 49.7203 276.115 47.9636 278.183 46.292Z" fill="#5A6680"/>
<path d="M276.03 42.8071L278.155 46.2921C276.115 47.9637 273.168 49.7203 270.845 50.7403L268.72 47.2554C271.043 46.2354 273.99 44.4788 276.03 42.8071Z" fill="#9DB2C7"/>
<path d="M275.633 55.0754C274.046 55.0754 272.488 54.282 271.581 52.8087L264.47 41.1639C263.11 38.954 263.818 36.0357 266.028 34.6757C268.238 33.3157 271.156 34.0241 272.516 36.234L279.656 47.9071C281.016 50.1171 280.308 53.0354 278.098 54.3954C277.333 54.8487 276.483 55.0754 275.633 55.0754ZM265.235 40.6823L272.375 52.3554C273.48 54.1687 275.831 54.7354 277.645 53.6304C279.458 52.5254 280.025 50.1738 278.92 48.3605L271.78 36.6873C270.675 34.874 268.323 34.3074 266.51 35.4124C264.696 36.5173 264.13 38.869 265.235 40.6823Z" fill="black"/>
<path d="M270.845 51.1937C270.703 51.1937 270.533 51.1087 270.476 50.9671L268.351 47.4821C268.295 47.3688 268.266 47.2271 268.295 47.1138C268.323 47.0005 268.436 46.8871 268.55 46.8305C270.93 45.7822 273.848 44.0255 275.775 42.4389C275.888 42.3539 276.001 42.3256 276.143 42.3539C276.256 42.3822 276.37 42.4389 276.455 42.5522L278.58 46.0372C278.693 46.2355 278.665 46.4621 278.466 46.6038C276.483 48.2188 273.508 50.0321 271.043 51.1087C270.986 51.1654 270.93 51.1937 270.845 51.1937ZM269.371 47.4538L271.043 50.1738C273.225 49.1538 275.775 47.6238 277.588 46.2072L275.916 43.4872C274.075 44.9038 271.553 46.4338 269.371 47.4538Z" fill="black"/>
<path d="M245.062 15.4376C244.269 15.4376 243.645 14.8143 243.645 14.021V5.54945C243.645 4.75613 244.269 4.13281 245.062 4.13281C245.855 4.13281 246.479 4.75613 246.479 5.54945V14.021C246.479 14.8143 245.827 15.4376 245.062 15.4376Z" fill="#9DB2C7"/>
<path d="M245.062 15.8911C244.042 15.8911 243.192 15.0412 243.192 14.0212V5.54966C243.192 4.52967 244.042 3.67969 245.062 3.67969C246.082 3.67969 246.932 4.52967 246.932 5.54966V14.0212C246.932 15.0695 246.082 15.8911 245.062 15.8911ZM245.062 4.58634C244.524 4.58634 244.099 5.01133 244.099 5.54966V14.0212C244.099 14.5595 244.524 14.9845 245.062 14.9845C245.6 14.9845 246.025 14.5595 246.025 14.0212V5.54966C246.025 5.01133 245.6 4.58634 245.062 4.58634Z" fill="black"/>
<path d="M248.32 4.07615C248.32 5.88945 246.847 7.33443 245.062 7.33443C243.249 7.33443 241.804 5.86112 241.804 4.07615C241.804 2.26285 243.277 0.817871 245.062 0.817871C246.847 0.817871 248.32 2.26285 248.32 4.07615Z" fill="#34B7F3"/>
<path d="M245.062 7.78795C243.022 7.78795 241.35 6.11631 241.35 4.07635C241.35 2.03638 243.022 0.364746 245.062 0.364746C247.102 0.364746 248.774 2.03638 248.774 4.07635C248.774 6.11631 247.102 7.78795 245.062 7.78795ZM245.062 1.24306C243.504 1.24306 242.257 2.51804 242.257 4.04802C242.257 5.60632 243.532 6.85297 245.062 6.85297C246.62 6.85297 247.867 5.57799 247.867 4.04802C247.867 2.51804 246.62 1.24306 245.062 1.24306Z" fill="black"/>
<path d="M244.835 2.9428C244.835 3.45279 244.41 3.87778 243.9 3.87778C243.39 3.87778 242.965 3.45279 242.965 2.9428C242.965 2.43281 243.39 2.00781 243.9 2.00781C244.41 2.00781 244.835 2.43281 244.835 2.9428Z" fill="#3DD7FF"/>
<path d="M245.062 12.2642C232.369 12.2642 223.274 20.084 223.274 34.1088C223.274 57.795 223.756 58.305 225.512 60.1183C226.957 61.62 230.3 62.6966 245.062 62.6966C259.823 62.6966 263.167 61.62 264.612 60.1183C266.368 58.305 266.85 57.795 266.85 34.1088C266.821 20.084 257.727 12.2642 245.062 12.2642Z" fill="#34B7F3"/>
<path d="M230.612 34.1088C230.612 21.5007 237.979 13.8791 248.717 12.4908C247.527 12.3492 246.309 12.2642 245.034 12.2642C232.341 12.2642 223.246 20.084 223.246 34.1088C223.246 57.795 223.727 58.305 225.484 60.1183C226.929 61.62 230.272 62.6966 245.034 62.6966C246.337 62.6966 247.555 62.6966 248.717 62.6683C237.072 62.4983 234.154 61.4783 232.851 60.1183C231.094 58.2767 230.612 57.795 230.612 34.1088Z" fill="#3DD7FF"/>
<path d="M241.209 23.2573C240.557 23.2573 240.019 22.719 240.019 22.0673V20.0274C240.019 19.3757 240.557 18.8374 241.209 18.8374C241.86 18.8374 242.399 19.3757 242.399 20.0274V22.0673C242.399 22.719 241.86 23.2573 241.209 23.2573Z" fill="#44FB71"/>
<path d="M241.209 23.6825C240.302 23.6825 239.594 22.9459 239.594 22.0675V20.0276C239.594 19.1209 240.33 18.4126 241.209 18.4126C242.115 18.4126 242.824 19.1493 242.824 20.0276V22.0675C242.824 22.9742 242.115 23.6825 241.209 23.6825ZM241.209 19.2909C240.812 19.2909 240.472 19.6309 240.472 20.0276V22.0675C240.472 22.4642 240.812 22.8042 241.209 22.8042C241.605 22.8042 241.945 22.4642 241.945 22.0675V20.0276C241.945 19.6309 241.605 19.2909 241.209 19.2909Z" fill="black"/>
<path d="M248.915 23.2573C248.264 23.2573 247.725 22.719 247.725 22.0673V20.0274C247.725 19.3757 248.264 18.8374 248.915 18.8374C249.567 18.8374 250.105 19.3757 250.105 20.0274V22.0673C250.077 22.719 249.567 23.2573 248.915 23.2573Z" fill="#44FB71"/>
<path d="M248.915 23.6825C248.009 23.6825 247.3 22.9459 247.3 22.0675V20.0276C247.3 19.1209 248.037 18.4126 248.915 18.4126C249.822 18.4126 250.53 19.1493 250.53 20.0276V22.0675C250.53 22.9742 249.794 23.6825 248.915 23.6825ZM248.915 19.2909C248.519 19.2909 248.179 19.6309 248.179 20.0276V22.0675C248.179 22.4642 248.519 22.8042 248.915 22.8042C249.312 22.8042 249.652 22.4642 249.652 22.0675V20.0276C249.624 19.6309 249.312 19.2909 248.915 19.2909Z" fill="black"/>
<path d="M253.59 29.2355H236.534C235.542 29.2355 234.749 28.4421 234.749 27.4505C234.749 26.4588 235.542 25.6655 236.534 25.6655H253.59C254.582 25.6655 255.375 26.4588 255.375 27.4505C255.375 28.4421 254.554 29.2355 253.59 29.2355Z" fill="white"/>
<path d="M253.59 29.689H236.534C235.315 29.689 234.295 28.6973 234.295 27.4507C234.295 26.2324 235.287 25.2124 236.534 25.2124H253.59C254.808 25.2124 255.828 26.2041 255.828 27.4507C255.8 28.669 254.808 29.689 253.59 29.689ZM236.534 26.1191C235.797 26.1191 235.202 26.714 235.202 27.4507C235.202 28.1874 235.797 28.7823 236.534 28.7823H253.59C254.327 28.7823 254.922 28.1874 254.922 27.4507C254.922 26.714 254.327 26.1191 253.59 26.1191H236.534Z" fill="black"/>
<path d="M227.382 47.6516C228.912 45.6399 228.855 35.6101 226.986 33.7685C226.051 32.8618 224.719 32.2385 223.359 31.7568C223.302 32.5218 223.274 33.2868 223.274 34.0801C223.274 41.5033 223.331 46.6316 223.444 50.2582C225.512 49.3799 226.787 48.4165 227.382 47.6516Z" fill="#A5E3FF"/>
<path d="M266.737 31.7568C265.377 32.2385 264.045 32.8618 263.11 33.7685C261.24 35.6101 261.183 45.6399 262.713 47.6516C263.308 48.4165 264.583 49.3799 266.652 50.2582C266.765 46.6316 266.822 41.5033 266.822 34.0801C266.822 33.2868 266.793 32.5218 266.737 31.7568Z" fill="#A5E3FF"/>
<path d="M226.277 36.9422C226.277 37.3105 225.966 37.6222 225.597 37.6222C225.229 37.6222 224.917 37.3105 224.917 36.9422C224.917 36.5739 225.229 36.2622 225.597 36.2622C225.966 36.2622 226.277 36.5739 226.277 36.9422Z" fill="#74C8E9"/>
<path d="M226.277 45.1868C226.277 45.5551 225.966 45.8668 225.597 45.8668C225.229 45.8668 224.917 45.5551 224.917 45.1868C224.917 44.8185 225.229 44.5068 225.597 44.5068C225.966 44.5068 226.277 44.8185 226.277 45.1868Z" fill="#74C8E9"/>
<path d="M263.847 36.9422C263.847 37.3105 264.158 37.6222 264.527 37.6222C264.895 37.6222 265.207 37.3105 265.207 36.9422C265.207 36.5739 264.895 36.2622 264.527 36.2622C264.158 36.2622 263.847 36.5739 263.847 36.9422Z" fill="#74C8E9"/>
<path d="M263.847 45.1868C263.847 45.5551 264.158 45.8668 264.527 45.8668C264.895 45.8668 265.207 45.5551 265.207 45.1868C265.207 44.8185 264.895 44.5068 264.527 44.5068C264.158 44.5068 263.847 44.8185 263.847 45.1868Z" fill="#74C8E9"/>
<path d="M223.501 51.6475C223.784 58.3057 224.379 58.929 225.512 60.119C226.957 61.6206 230.3 62.6973 245.062 62.6973C259.823 62.6973 263.167 61.6206 264.612 60.119C265.745 58.9573 266.34 58.334 266.623 51.6758C247.555 54.0558 228.204 52.1858 223.501 51.6475Z" fill="#9DB2C7"/>
<path d="M230.952 52.2991C227.467 52.0441 224.861 51.7891 223.501 51.6475C223.784 58.3057 224.379 58.929 225.512 60.119C226.957 61.6206 230.3 62.6973 245.062 62.6973C246.394 62.6973 247.612 62.6973 248.774 62.6689C237.157 62.4989 234.239 61.479 232.935 60.119C231.83 58.9857 231.235 58.3623 230.952 52.2991Z" fill="#B5D2E6"/>
<path d="M246.025 53.2906C235.429 53.2906 226.787 52.469 223.444 52.0723C223.189 52.044 223.019 51.8173 223.047 51.5907C223.076 51.3357 223.302 51.1657 223.529 51.194C228.884 51.789 247.782 53.574 266.538 51.194C266.793 51.1657 267.02 51.3357 267.048 51.5907C267.077 51.8457 266.907 52.0723 266.652 52.1007C259.568 52.979 252.429 53.2906 246.025 53.2906Z" fill="black"/>
<path d="M245.062 63.1218C230.64 63.1218 226.844 62.1302 225.2 60.4302C223.302 58.4469 222.849 57.9936 222.849 34.109C222.849 27.2524 225.03 21.5575 229.11 17.6193C233.049 13.8227 238.574 11.8394 245.062 11.8394C251.55 11.8394 257.075 13.851 261.013 17.6193C265.121 21.5575 267.275 27.2524 267.275 34.109C267.275 57.9936 266.821 58.4469 264.923 60.4302C263.28 62.1302 259.483 63.1218 245.062 63.1218ZM245.062 12.6893C238.8 12.6893 233.502 14.616 229.734 18.2426C225.824 22.0108 223.727 27.5074 223.727 34.109C223.727 57.6252 224.209 58.1352 225.824 59.8069C227.24 61.2518 231.037 62.2435 245.033 62.2435C259.03 62.2435 262.855 61.2802 264.243 59.8069C265.858 58.1352 266.34 57.6252 266.34 34.109C266.34 27.5074 264.271 22.0392 260.333 18.2426C256.622 14.616 251.323 12.6893 245.062 12.6893Z" fill="black"/>
<path d="M278.778 82.6147H211.204V86.0997H278.778V82.6147Z" fill="#9AC2E1"/>
<path d="M278.778 86.5532H211.204C210.949 86.5532 210.751 86.3549 210.751 86.0999V82.6149C210.751 82.3599 210.949 82.1616 211.204 82.1616H278.778C279.033 82.1616 279.232 82.3599 279.232 82.6149V86.0999C279.232 86.3549 279.033 86.5532 278.778 86.5532ZM211.658 85.6749H278.353V83.0683H211.658V85.6749Z" fill="black"/>
<path d="M278.778 82.6151H211.204L215.114 73.8319C215.312 73.3502 215.794 73.0669 216.304 73.0669H273.678C274.188 73.0669 274.67 73.3786 274.868 73.8319L278.778 82.6151Z" fill="#C1DDF5"/>
<path d="M231.236 83.0686H226.362C226.221 83.0686 226.079 83.0119 225.994 82.8703C225.909 82.7569 225.881 82.6153 225.937 82.4736L229.167 72.9254C229.224 72.7554 229.394 72.6138 229.592 72.6138H233.956C234.097 72.6138 234.239 72.6704 234.324 72.7838C234.409 72.8971 234.437 73.0388 234.409 73.1804L231.689 82.7286C231.604 82.9553 231.434 83.0686 231.236 83.0686ZM226.986 82.1903H230.896L233.361 73.5204H229.904L226.986 82.1903Z" fill="#95BBD8"/>
<path d="M241.974 83.0686H236.477C236.335 83.0686 236.222 83.0119 236.137 82.8986C236.052 82.7853 236.024 82.6436 236.052 82.5303L238.035 72.9821C238.092 72.7838 238.262 72.6138 238.46 72.6138H242.767C242.88 72.6138 243.022 72.6704 243.107 72.7554C243.192 72.8404 243.22 72.9821 243.22 73.0954L242.427 82.6436C242.399 82.8986 242.2 83.0686 241.974 83.0686ZM237.015 82.1903H241.549L242.257 73.5204H238.829L237.015 82.1903Z" fill="#95BBD8"/>
<path d="M236.477 83.0681H231.236C231.094 83.0681 230.952 83.0114 230.867 82.8981C230.782 82.7848 230.754 82.6431 230.782 82.5014L233.502 72.9533C233.559 72.7549 233.729 72.6416 233.927 72.6416H238.461C238.602 72.6416 238.716 72.6983 238.801 72.8116C238.886 72.9249 238.914 73.0666 238.886 73.1799L236.902 82.7281C236.874 82.9264 236.704 83.0681 236.477 83.0681ZM231.831 82.1898H236.109L237.922 73.5199H234.296L231.831 82.1898Z" fill="#95BBD8"/>
<path d="M226.362 83.0686H221.432C221.291 83.0686 221.149 82.9836 221.064 82.8703C220.979 82.7569 220.951 82.5869 221.008 82.4453L224.606 72.8971C224.662 72.7271 224.832 72.6138 225.031 72.6138H229.621C229.762 72.6138 229.904 72.6704 229.989 72.8121C230.074 72.9254 230.102 73.0671 230.046 73.2088L226.816 82.7569C226.731 82.9553 226.561 83.0686 226.362 83.0686ZM222.056 82.1903H226.022L228.941 73.5204H225.286L222.056 82.1903Z" fill="#95BBD8"/>
<path d="M221.432 83.0686H216.899C216.758 83.0686 216.616 82.9836 216.531 82.8703C216.446 82.7569 216.418 82.5869 216.474 82.4453L220.271 72.8971C220.327 72.7271 220.497 72.6138 220.696 72.6138H225.031C225.172 72.6138 225.314 72.6988 225.399 72.8121C225.484 72.9254 225.512 73.0954 225.456 73.2371L221.857 82.7853C221.772 82.9553 221.602 83.0686 221.432 83.0686ZM217.523 82.1903H221.092L224.351 73.5204H220.979L217.523 82.1903Z" fill="#95BBD8"/>
<path d="M263.648 83.0681H258.775C258.577 83.0681 258.407 82.9264 258.35 82.7564L255.63 73.2083C255.602 73.0666 255.63 72.9249 255.715 72.8116C255.8 72.6983 255.942 72.6416 256.084 72.6416H260.447C260.645 72.6416 260.815 72.7549 260.872 72.9533L264.102 82.5014C264.158 82.6431 264.13 82.7848 264.045 82.8981C263.932 83.0114 263.818 83.0681 263.648 83.0681ZM259.115 82.1898H263.025L260.107 73.5199H256.65L259.115 82.1898Z" fill="#95BBD8"/>
<path d="M273.14 83.0686H268.607C268.408 83.0686 268.267 82.9553 268.182 82.7853L264.583 73.2371C264.527 73.0954 264.555 72.9538 264.64 72.8121C264.725 72.6988 264.867 72.6138 265.008 72.6138H269.343C269.513 72.6138 269.683 72.7271 269.768 72.8971L273.565 82.4453C273.621 82.5869 273.593 82.7286 273.508 82.8703C273.423 83.0119 273.281 83.0686 273.14 83.0686ZM268.918 82.1903H272.488L269.032 73.5204H265.66L268.918 82.1903Z" fill="#95BBD8"/>
<path d="M268.607 83.0686H263.677C263.478 83.0686 263.308 82.9553 263.252 82.7569L260.022 73.2088C259.965 73.0671 259.993 72.9254 260.078 72.8121C260.163 72.6988 260.305 72.6138 260.447 72.6138H265.037C265.235 72.6138 265.377 72.7271 265.462 72.8971L269.06 82.4453C269.117 82.5869 269.088 82.7286 269.003 82.8703C268.89 83.0119 268.748 83.0686 268.607 83.0686ZM263.988 82.1903H267.955L264.697 73.5204H261.042L263.988 82.1903Z" fill="#95BBD8"/>
<path d="M253.533 83.0681H248.037C247.81 83.0681 247.612 82.8981 247.583 82.6714L246.79 73.1233C246.79 73.0099 246.818 72.8683 246.903 72.7833C246.988 72.6983 247.102 72.6416 247.243 72.6416H251.55C251.748 72.6416 251.947 72.7833 251.975 73.0099L253.958 82.5581C253.987 82.6998 253.958 82.8131 253.873 82.9264C253.788 83.0114 253.675 83.0681 253.533 83.0681ZM248.462 82.1898H252.995L251.182 73.5199H247.753L248.462 82.1898Z" fill="#95BBD8"/>
<path d="M258.775 83.0686H253.533C253.335 83.0686 253.137 82.9269 253.108 82.7003L251.125 73.1521C251.097 73.0104 251.125 72.8971 251.21 72.7838C251.295 72.6704 251.408 72.6138 251.55 72.6138H256.083C256.282 72.6138 256.452 72.7554 256.508 72.9254L259.228 82.4736C259.257 82.6153 259.228 82.7569 259.143 82.8703C259.058 83.0119 258.917 83.0686 258.775 83.0686ZM253.902 82.1903H258.18L255.715 73.5204H252.088L253.902 82.1903Z" fill="#95BBD8"/>
<path d="M248.037 83.0681H241.945C241.832 83.0681 241.69 83.0114 241.605 82.9264C241.52 82.8414 241.492 82.6998 241.492 82.5864L242.285 73.0383C242.314 72.8116 242.512 72.6416 242.739 72.6416H247.244C247.47 72.6416 247.669 72.8116 247.697 73.0383L248.49 82.5864C248.49 82.6998 248.462 82.8414 248.377 82.9264C248.292 83.0114 248.178 83.0681 248.037 83.0681ZM242.455 82.1898H247.555L246.847 73.5199H243.164L242.455 82.1898Z" fill="#95BBD8"/>
<path d="M278.778 83.0686H211.204C211.063 83.0686 210.921 82.9836 210.836 82.8703C210.751 82.7569 210.751 82.5869 210.808 82.4453L214.718 73.6621C215.001 73.0388 215.624 72.6138 216.304 72.6138H273.678C274.358 72.6138 274.982 73.0104 275.265 73.6621L279.175 82.4453C279.231 82.5869 279.231 82.7569 279.146 82.8703C279.09 82.9836 278.948 83.0686 278.778 83.0686ZM211.913 82.1903H278.127L274.472 74.0304C274.33 73.7188 274.018 73.5204 273.678 73.5204H216.333C215.993 73.5204 215.681 73.7188 215.539 74.0304L211.913 82.1903Z" fill="black"/>
<path d="M284.246 104.828H205.764C204.858 104.828 204.206 103.893 204.546 103.043L211.232 86.0996H278.806L285.493 103.043C285.804 103.893 285.181 104.828 284.246 104.828Z" fill="#C1DDF5"/>
<path d="M284.246 105.281H205.764C205.198 105.281 204.659 104.998 204.319 104.516C203.979 104.034 203.923 103.439 204.149 102.901L210.836 85.9865C210.893 85.8165 211.063 85.7031 211.261 85.7031H278.835C279.005 85.7031 279.175 85.8165 279.26 85.9865L285.946 102.901C286.145 103.439 286.088 104.034 285.776 104.516C285.38 104.998 284.841 105.281 284.246 105.281ZM211.516 86.5531L204.943 103.213C204.829 103.468 204.858 103.779 205.028 104.006C205.198 104.233 205.453 104.374 205.736 104.374H284.246C284.53 104.374 284.785 104.233 284.955 104.006C285.125 103.779 285.153 103.468 285.04 103.213L278.466 86.5531H211.516Z" fill="black"/>
<path d="M275.605 98.8495H253.023C252.74 98.8495 252.513 98.6512 252.428 98.3962L250.643 89.8397C250.53 89.4714 250.842 89.0747 251.238 89.0747H272.318C272.545 89.0747 272.771 89.2164 272.856 89.443L276.115 97.9996C276.341 98.4245 276.03 98.8495 275.605 98.8495Z" fill="#3CA8DC"/>
<path d="M276.172 98.0279L272.913 89.4714C272.828 89.2447 272.602 89.103 272.375 89.103H270.817L252.429 98.3962C252.485 98.6512 252.74 98.8495 253.024 98.8495H275.605C276.03 98.8495 276.342 98.4245 276.172 98.0279Z" fill="#2585BE"/>
<path d="M253.364 96.0725C253.222 96.0725 253.08 96.0159 252.995 95.8742C252.854 95.6759 252.91 95.3925 253.109 95.2509C253.194 95.1942 256.027 93.4659 256.905 92.9559C257.047 92.8709 257.189 92.8709 257.33 92.9276L261.042 94.7692L265.433 91.4259C265.632 91.2843 265.915 91.3126 266.057 91.5109C266.198 91.7093 266.17 91.9926 265.972 92.1343L261.354 95.6192C261.212 95.7325 261.042 95.7325 260.872 95.6759L257.132 93.8059C255.687 94.6842 253.675 95.8742 253.59 95.9592C253.534 96.0442 253.449 96.0725 253.364 96.0725Z" fill="#6EFCF6"/>
<path d="M272.743 96.0729H269.457C269.287 96.0729 269.145 95.9596 269.088 95.8179L267.643 91.7947C267.558 91.5397 267.757 91.2563 268.012 91.2563H271.298C271.468 91.2563 271.61 91.3697 271.667 91.5114L273.111 95.5346C273.225 95.8179 273.026 96.0729 272.743 96.0729Z" fill="#6EFCF6"/>
<path d="M275.605 99.3031H253.023C252.542 99.3031 252.117 98.9914 252.003 98.5097L250.218 89.9249C250.133 89.6416 250.218 89.3016 250.417 89.0466C250.615 88.7916 250.927 88.6499 251.238 88.6499H272.318C272.743 88.6499 273.111 88.9049 273.281 89.2732L276.568 97.8297C276.71 98.1414 276.681 98.5097 276.483 98.7931C276.285 99.1331 275.973 99.3031 275.605 99.3031ZM251.267 89.5565C251.21 89.5565 251.153 89.5849 251.153 89.6132C251.125 89.6416 251.097 89.6699 251.125 89.7549L252.91 98.3397C252.91 98.3964 252.995 98.4247 253.052 98.4247H275.633C275.718 98.4247 275.746 98.3681 275.775 98.3681C275.803 98.3397 275.803 98.2831 275.775 98.2264L272.488 89.6699C272.46 89.6416 272.403 89.5849 272.346 89.5849H251.267V89.5565Z" fill="black"/>
<path d="M217.664 96.7815H213.726C213.272 96.7815 212.961 96.3282 213.131 95.9032L214.944 91.0866C215.029 90.8316 215.284 90.6616 215.539 90.6616H219.109C219.534 90.6616 219.846 91.0866 219.732 91.5116L218.287 96.3282C218.202 96.5832 217.947 96.7815 217.664 96.7815Z" fill="#6FC973"/>
<path d="M217.239 94.7699L218.457 90.6616H215.539C215.256 90.6616 215.029 90.8316 214.944 91.0866L213.386 95.2232H216.616C216.899 95.2232 217.154 95.0249 217.239 94.7699Z" fill="#A7FCA4"/>
<path d="M217.664 97.2345H213.726C213.358 97.2345 213.018 97.0646 212.819 96.7529C212.621 96.4696 212.564 96.0729 212.706 95.7329L214.519 90.9163C214.689 90.4913 215.086 90.208 215.539 90.208H219.109C219.449 90.208 219.789 90.378 219.987 90.6613C220.186 90.9447 220.271 91.2847 220.157 91.6247L218.712 96.4412C218.571 96.9229 218.146 97.2345 217.664 97.2345ZM215.539 91.1147C215.454 91.1147 215.369 91.1713 215.341 91.2563L213.528 96.0729C213.499 96.1579 213.528 96.2146 213.556 96.2712C213.584 96.2996 213.641 96.3562 213.726 96.3562H217.664C217.749 96.3562 217.834 96.2996 217.862 96.2146L219.307 91.398C219.336 91.313 219.307 91.2563 219.279 91.228C219.251 91.1997 219.194 91.143 219.109 91.143H215.539V91.1147Z" fill="black"/>
<path d="M227.071 96.7815H223.104C222.679 96.7815 222.367 96.3565 222.481 95.9315L223.926 91.1149C224.011 90.8316 224.266 90.6616 224.549 90.6616H228.147C228.572 90.6616 228.884 91.0583 228.771 91.4549L227.694 96.2715C227.637 96.5548 227.354 96.7815 227.071 96.7815Z" fill="#54B5D6"/>
<path d="M226.646 94.8832L227.581 90.6899H224.549C224.266 90.6899 224.011 90.8883 223.926 91.1433L222.651 95.3932H226.022C226.306 95.3649 226.561 95.1665 226.646 94.8832Z" fill="#80E7EF"/>
<path d="M227.071 97.2345H223.104C222.764 97.2345 222.424 97.0646 222.226 96.7812C222.027 96.4979 221.942 96.1579 222.056 95.8179L223.501 91.0013C223.642 90.548 224.067 90.208 224.549 90.208H228.147C228.487 90.208 228.799 90.3497 228.997 90.633C229.196 90.888 229.281 91.228 229.224 91.568L228.147 96.3846C228.006 96.8662 227.581 97.2345 227.071 97.2345ZM224.549 91.1147C224.464 91.1147 224.379 91.1713 224.351 91.2563L222.906 96.0729C222.877 96.1579 222.906 96.2146 222.934 96.2429C222.962 96.2712 223.019 96.3279 223.104 96.3279H227.071C227.156 96.3279 227.241 96.2712 227.269 96.1579L228.346 91.3413C228.374 91.2563 228.317 91.1997 228.317 91.1713C228.289 91.143 228.232 91.0863 228.147 91.0863H224.549V91.1147Z" fill="black"/>
<path d="M235.344 91.9083C235.344 92.5883 234.777 93.1549 234.097 93.1549C233.417 93.1549 232.851 92.5883 232.851 91.9083C232.851 91.2283 233.417 90.6616 234.097 90.6616C234.806 90.6616 235.344 91.2283 235.344 91.9083Z" fill="#F87230"/>
<path d="M234.126 93.5796C233.191 93.5796 232.454 92.8146 232.454 91.908C232.454 90.973 233.219 90.2363 234.126 90.2363C235.06 90.2363 235.797 91.0013 235.797 91.908C235.797 92.8429 235.032 93.5796 234.126 93.5796ZM234.126 91.1146C233.701 91.1146 233.332 91.483 233.332 91.908C233.332 92.333 233.701 92.7013 234.126 92.7013C234.55 92.7013 234.919 92.333 234.919 91.908C234.919 91.483 234.55 91.1146 234.126 91.1146Z" fill="black"/>
<path d="M241.152 91.9083C241.152 92.5883 240.585 93.1549 239.905 93.1549C239.225 93.1549 238.659 92.5883 238.659 91.9083C238.659 91.2283 239.225 90.6616 239.905 90.6616C240.585 90.6616 241.152 91.2283 241.152 91.9083Z" fill="#FABD19"/>
<path d="M239.905 93.5796C238.97 93.5796 238.234 92.8146 238.234 91.908C238.234 90.973 238.999 90.2363 239.905 90.2363C240.84 90.2363 241.577 91.0013 241.577 91.908C241.577 92.8429 240.84 93.5796 239.905 93.5796ZM239.905 91.1146C239.48 91.1146 239.112 91.483 239.112 91.908C239.112 92.333 239.48 92.7013 239.905 92.7013C240.33 92.7013 240.699 92.333 240.699 91.908C240.699 91.483 240.33 91.1146 239.905 91.1146Z" fill="black"/>
</svg>
