<svg xmlns="http://www.w3.org/2000/svg" viewBox="0 0 167.7 168.22">
    <defs><style>.cls-1{fill:#c6c6c6;}.cls-2,.cls-8{fill:#2a668b;}.cls-3{fill:#10a5b8;}.cls-4{fill:#fbfbfc;stroke:#c9c9c9;}.cls-17,.cls-4{stroke-miterlimit:10;}.cls-5{fill:#0a2646;}.cls-6{fill:#0799ac;}.cls-7{fill:#c8e4f2;}.cls-8{opacity:0.4;}.cls-9{fill:#043f63;}.cls-10{fill:#052144;}.cls-11{fill:#ebcfe3;}.cls-12{fill:#53b7c2;}.cls-13{fill:#bf85a0;}.cls-14{fill:#4a7192;}.cls-15{fill:#fff;}.cls-16{fill:#c4c4c4;}.cls-17{fill:none;stroke:#e94742;stroke-linecap:round;stroke-width:2px;}</style></defs><title>자산 1</title><g id="레이어_2" data-name="레이어 2"><g id="레이어_2-2" data-name="레이어 2"><g id="로봇"><ellipse class="cls-1" cx="90.26" cy="158.31" rx="77.43" ry="9.91"/><rect class="cls-2" x="113.18" y="45.72" width="12.11" height="17.45" rx="1.48" ry="1.48"/><rect class="cls-3" x="7.44" y="45.72" width="12.11" height="17.45" rx="1.48" ry="1.48"/><path class="cls-4" d="M23.09,29.47h87.34a7,7,0,0,1,7,7v32.7a0,0,0,0,1,0,0H16.12a0,0,0,0,1,0,0V36.44A7,7,0,0,1,23.09,29.47Z"/><g id="바퀴"><path class="cls-5" d="M30.58,106.5H16.17S-9.58,124.89,16.06,157l14.72-.07S55.47,134.38,30.58,106.5Z"/><path class="cls-5" d="M32.11,131.74c0,13.95-7.18,25.27-16,25.27S0,145.69,0,131.74c0-7.59,2.13-14.4,5.49-19,2.83-3.89,6.52-6.24,10.57-6.24C24.93,106.47,32.11,117.78,32.11,131.74Z"/><path class="cls-6" d="M6.91,111.07l14.44-.54-.94,3.85L4,115.07A16.49,16.49,0,0,1,6.91,111.07Z"/><path class="cls-6" d="M1.59,120.91l15-.46-.93,3.86-15.15.75A22.83,22.83,0,0,1,1.59,120.91Z"/><path class="cls-6" d="M.05,131.54,15,131l.63,3.84-15.47.64A26.87,26.87,0,0,1,.05,131.54Z"/><path class="cls-6" d="M1.24,141.36,16,140.92l1.73,3.79-15.23.7A23.85,23.85,0,0,1,1.24,141.36Z"/><path class="cls-6" d="M5,150l15.14-.47,3.59,3.68-15.45.67A14.81,14.81,0,0,1,5,150Z"/><ellipse class="cls-5" cx="30" cy="131.74" rx="16.06" ry="25.27"/><ellipse class="cls-7" cx="30" cy="131.74" rx="8.03" ry="12.63"/></g><path class="cls-8" d="M66.35,29.47h44.08a7,7,0,0,1,7,7V69.14a0,0,0,0,1,0,0h-51a0,0,0,0,1,0,0V29.47A0,0,0,0,1,66.35,29.47Z"/><path class="cls-3" d="M33.51,38h66.58a5.7,5.7,0,0,1,5.7,5.7V61.87a0,0,0,0,1,0,0h-78a0,0,0,0,1,0,0V43.72A5.7,5.7,0,0,1,33.51,38Z"/><path class="cls-2" d="M66.35,38H100a5.7,5.7,0,0,1,5.7,5.7V61.87a0,0,0,0,1,0,0H66.35a0,0,0,0,1,0,0V38A0,0,0,0,1,66.35,38Z"/><path class="cls-9" d="M56,69H77.81a2.27,2.27,0,0,1,2.27,2.27v13a0,0,0,0,1,0,0H53.72a0,0,0,0,1,0,0v-13A2.27,2.27,0,0,1,56,69Z"/><path class="cls-4" d="M36.51,84.31H98a6.29,6.29,0,0,1,6.29,6.29v29.25a.07.07,0,0,1-.07.07H30.29a.07.07,0,0,1-.07-.07V90.59A6.29,6.29,0,0,1,36.51,84.31Z"/><path class="cls-10" d="M29.86,119.56h74.42a0,0,0,0,1,0,0v16.38a0,0,0,0,1,0,0H34.08a4.21,4.21,0,0,1-4.21-4.21V119.56A0,0,0,0,1,29.86,119.56Z"/><circle class="cls-11" cx="46.81" cy="103.73" r="4.24"/><circle class="cls-12" cx="60.01" cy="103.73" r="4.24"/><circle class="cls-13" cx="74.16" cy="103.73" r="4.24"/><circle class="cls-14" cx="87.04" cy="103.73" r="4.24"/><ellipse class="cls-15" cx="47.35" cy="50.37" rx="6.39" ry="7.92"/><ellipse class="cls-3" cx="47.35" cy="50.37" rx="3.73" ry="4.61"/><ellipse class="cls-15" cx="84.93" cy="50.37" rx="6.39" ry="7.92"/><ellipse class="cls-2" cx="84.93" cy="50.37" rx="3.73" ry="4.61"/><path class="cls-16" d="M48,29.58l-24.88-.11A7,7,0,0,0,16,35.86l.22,28.75S19,43.77,19.72,41a12.84,12.84,0,0,1,4.79-6.74C28.55,31.23,48,29.58,48,29.58Z"/><g id="바퀴-2" data-name="바퀴"><path class="cls-5" d="M121.52,106.5H107.11S81.35,124.89,107,157l14.73-.07S146.41,134.38,121.52,106.5Z"/><path class="cls-5" d="M123.05,131.74c0,13.95-7.19,25.27-16.06,25.27s-16-11.32-16-25.27c0-7.59,2.12-14.4,5.49-19,2.82-3.89,6.52-6.24,10.56-6.24C115.86,106.47,123.05,117.78,123.05,131.74Z"/><path class="cls-6" d="M97.85,111.07l14.44-.54-.94,3.85-16.41.69A16.17,16.17,0,0,1,97.85,111.07Z"/><path class="cls-6" d="M92.53,120.91l15-.46-.93,3.86-15.15.75A22.83,22.83,0,0,1,92.53,120.91Z"/><path class="cls-6" d="M91,131.54l15-.55.63,3.84-15.48.64A27.7,27.7,0,0,1,91,131.54Z"/><path class="cls-6" d="M92.18,141.36l14.77-.44,1.73,3.79-15.23.7A23.85,23.85,0,0,1,92.18,141.36Z"/><path class="cls-6" d="M95.91,150l15.14-.47,3.58,3.68-15.44.67A14.81,14.81,0,0,1,95.91,150Z"/><ellipse class="cls-5" cx="120.94" cy="131.74" rx="16.06" ry="25.27"/><ellipse class="cls-7" cx="120.94" cy="131.74" rx="8.03" ry="12.63"/></g><path class="cls-17" d="M87.22,12.71A24.25,24.25,0,0,0,67.8,1c-13.64-.79-21,10.89-21,10.89"/><path class="cls-17" d="M79.86,16.25A15.43,15.43,0,0,0,67.5,8.81c-8.69-.5-13.37,6.94-13.37,6.94"/><path class="cls-17" d="M72.5,18.9a6.69,6.69,0,0,0-5.37-3.23,6.82,6.82,0,0,0-5.8,3"/></g></g></g></svg>